<svg xmlns="http://www.w3.org/2000/svg" xmlns:xlink="http://www.w3.org/1999/xlink" width="125" zoomAndPan="magnify" viewBox="0 0 93.75 149.999998" height="200" preserveAspectRatio="xMidYMid meet" version="1.0"><defs><clipPath id="7b031873d5"><path d="M 0 0.199219 L 93.5 0.199219 L 93.5 149.800781 L 0 149.800781 Z M 0 0.199219 " clip-rule="nonzero"/></clipPath><clipPath id="3e442ec77c"><path d="M 58.835938 14.664062 L 61.082031 14.664062 L 61.082031 52.066406 L 58.835938 52.066406 Z M 58.835938 14.664062 " clip-rule="nonzero"/></clipPath><clipPath id="155410d21c"><path d="M 60.003906 14.664062 C 59.410156 14.664062 58.929688 15.144531 58.929688 15.738281 L 58.929688 50.988281 C 58.929688 51.582031 59.410156 52.066406 60.003906 52.066406 C 60.601562 52.066406 61.082031 51.582031 61.082031 50.988281 L 61.082031 15.738281 C 61.082031 15.144531 60.601562 14.664062 60.003906 14.664062 Z M 60.003906 14.664062 " clip-rule="nonzero"/></clipPath><clipPath id="149d08376a"><path d="M 59 31 L 61 31 L 61 34 L 59 34 Z M 59 31 " clip-rule="nonzero"/></clipPath><clipPath id="60d3ac56ac"><path d="M 60.003906 14.664062 C 59.410156 14.664062 58.929688 15.144531 58.929688 15.738281 L 58.929688 50.988281 C 58.929688 51.582031 59.410156 52.066406 60.003906 52.066406 C 60.601562 52.066406 61.082031 51.582031 61.082031 50.988281 L 61.082031 15.738281 C 61.082031 15.144531 60.601562 14.664062 60.003906 14.664062 Z M 60.003906 14.664062 " clip-rule="nonzero"/></clipPath><clipPath id="71d267e8d4"><path d="M 59 25 L 61 25 L 61 28 L 59 28 Z M 59 25 " clip-rule="nonzero"/></clipPath><clipPath id="dab5fcf95f"><path d="M 60.003906 14.664062 C 59.410156 14.664062 58.929688 15.144531 58.929688 15.738281 L 58.929688 50.988281 C 58.929688 51.582031 59.410156 52.066406 60.003906 52.066406 C 60.601562 52.066406 61.082031 51.582031 61.082031 50.988281 L 61.082031 15.738281 C 61.082031 15.144531 60.601562 14.664062 60.003906 14.664062 Z M 60.003906 14.664062 " clip-rule="nonzero"/></clipPath><clipPath id="d392224bb2"><path d="M 59 29 L 61 29 L 61 32 L 59 32 Z M 59 29 " clip-rule="nonzero"/></clipPath><clipPath id="7541b18bf7"><path d="M 60.003906 14.664062 C 59.410156 14.664062 58.929688 15.144531 58.929688 15.738281 L 58.929688 50.988281 C 58.929688 51.582031 59.410156 52.066406 60.003906 52.066406 C 60.601562 52.066406 61.082031 51.582031 61.082031 50.988281 L 61.082031 15.738281 C 61.082031 15.144531 60.601562 14.664062 60.003906 14.664062 Z M 60.003906 14.664062 " clip-rule="nonzero"/></clipPath><clipPath id="90c87866d8"><path d="M 59 27 L 61 27 L 61 30 L 59 30 Z M 59 27 " clip-rule="nonzero"/></clipPath><clipPath id="3f2066d9b1"><path d="M 60.003906 14.664062 C 59.410156 14.664062 58.929688 15.144531 58.929688 15.738281 L 58.929688 50.988281 C 58.929688 51.582031 59.410156 52.066406 60.003906 52.066406 C 60.601562 52.066406 61.082031 51.582031 61.082031 50.988281 L 61.082031 15.738281 C 61.082031 15.144531 60.601562 14.664062 60.003906 14.664062 Z M 60.003906 14.664062 " clip-rule="nonzero"/></clipPath><clipPath id="6fb4764629"><path d="M 59 21 L 61 21 L 61 24 L 59 24 Z M 59 21 " clip-rule="nonzero"/></clipPath><clipPath id="8446e24bb9"><path d="M 60.003906 14.664062 C 59.410156 14.664062 58.929688 15.144531 58.929688 15.738281 L 58.929688 50.988281 C 58.929688 51.582031 59.410156 52.066406 60.003906 52.066406 C 60.601562 52.066406 61.082031 51.582031 61.082031 50.988281 L 61.082031 15.738281 C 61.082031 15.144531 60.601562 14.664062 60.003906 14.664062 Z M 60.003906 14.664062 " clip-rule="nonzero"/></clipPath><clipPath id="98524a644a"><path d="M 59 50 L 61 50 L 61 52.066406 L 59 52.066406 Z M 59 50 " clip-rule="nonzero"/></clipPath><clipPath id="994961dbca"><path d="M 60.003906 14.664062 C 59.410156 14.664062 58.929688 15.144531 58.929688 15.738281 L 58.929688 50.988281 C 58.929688 51.582031 59.410156 52.066406 60.003906 52.066406 C 60.601562 52.066406 61.082031 51.582031 61.082031 50.988281 L 61.082031 15.738281 C 61.082031 15.144531 60.601562 14.664062 60.003906 14.664062 Z M 60.003906 14.664062 " clip-rule="nonzero"/></clipPath><clipPath id="f5c0561da6"><path d="M 59 14.664062 L 61 14.664062 L 61 16 L 59 16 Z M 59 14.664062 " clip-rule="nonzero"/></clipPath><clipPath id="8f64988df1"><path d="M 60.003906 14.664062 C 59.410156 14.664062 58.929688 15.144531 58.929688 15.738281 L 58.929688 50.988281 C 58.929688 51.582031 59.410156 52.066406 60.003906 52.066406 C 60.601562 52.066406 61.082031 51.582031 61.082031 50.988281 L 61.082031 15.738281 C 61.082031 15.144531 60.601562 14.664062 60.003906 14.664062 Z M 60.003906 14.664062 " clip-rule="nonzero"/></clipPath><clipPath id="c2b7de3d18"><path d="M 59 19 L 61 19 L 61 22 L 59 22 Z M 59 19 " clip-rule="nonzero"/></clipPath><clipPath id="88b3b6bbb6"><path d="M 60.003906 14.664062 C 59.410156 14.664062 58.929688 15.144531 58.929688 15.738281 L 58.929688 50.988281 C 58.929688 51.582031 59.410156 52.066406 60.003906 52.066406 C 60.601562 52.066406 61.082031 51.582031 61.082031 50.988281 L 61.082031 15.738281 C 61.082031 15.144531 60.601562 14.664062 60.003906 14.664062 Z M 60.003906 14.664062 " clip-rule="nonzero"/></clipPath><clipPath id="b85b71b8e3"><path d="M 59 17 L 61 17 L 61 20 L 59 20 Z M 59 17 " clip-rule="nonzero"/></clipPath><clipPath id="8b53f2815b"><path d="M 60.003906 14.664062 C 59.410156 14.664062 58.929688 15.144531 58.929688 15.738281 L 58.929688 50.988281 C 58.929688 51.582031 59.410156 52.066406 60.003906 52.066406 C 60.601562 52.066406 61.082031 51.582031 61.082031 50.988281 L 61.082031 15.738281 C 61.082031 15.144531 60.601562 14.664062 60.003906 14.664062 Z M 60.003906 14.664062 " clip-rule="nonzero"/></clipPath><clipPath id="2291afb268"><path d="M 59 15 L 61 15 L 61 18 L 59 18 Z M 59 15 " clip-rule="nonzero"/></clipPath><clipPath id="fea994356a"><path d="M 60.003906 14.664062 C 59.410156 14.664062 58.929688 15.144531 58.929688 15.738281 L 58.929688 50.988281 C 58.929688 51.582031 59.410156 52.066406 60.003906 52.066406 C 60.601562 52.066406 61.082031 51.582031 61.082031 50.988281 L 61.082031 15.738281 C 61.082031 15.144531 60.601562 14.664062 60.003906 14.664062 Z M 60.003906 14.664062 " clip-rule="nonzero"/></clipPath><clipPath id="4e23ead6fe"><path d="M 59 23 L 61 23 L 61 26 L 59 26 Z M 59 23 " clip-rule="nonzero"/></clipPath><clipPath id="72d98eead7"><path d="M 60.003906 14.664062 C 59.410156 14.664062 58.929688 15.144531 58.929688 15.738281 L 58.929688 50.988281 C 58.929688 51.582031 59.410156 52.066406 60.003906 52.066406 C 60.601562 52.066406 61.082031 51.582031 61.082031 50.988281 L 61.082031 15.738281 C 61.082031 15.144531 60.601562 14.664062 60.003906 14.664062 Z M 60.003906 14.664062 " clip-rule="nonzero"/></clipPath><clipPath id="8c29bd0c0f"><path d="M 59 46 L 61 46 L 61 50 L 59 50 Z M 59 46 " clip-rule="nonzero"/></clipPath><clipPath id="d08228cd06"><path d="M 60.003906 14.664062 C 59.410156 14.664062 58.929688 15.144531 58.929688 15.738281 L 58.929688 50.988281 C 58.929688 51.582031 59.410156 52.066406 60.003906 52.066406 C 60.601562 52.066406 61.082031 51.582031 61.082031 50.988281 L 61.082031 15.738281 C 61.082031 15.144531 60.601562 14.664062 60.003906 14.664062 Z M 60.003906 14.664062 " clip-rule="nonzero"/></clipPath><clipPath id="7a804d5e47"><path d="M 59 44 L 61 44 L 61 48 L 59 48 Z M 59 44 " clip-rule="nonzero"/></clipPath><clipPath id="d0205bed08"><path d="M 60.003906 14.664062 C 59.410156 14.664062 58.929688 15.144531 58.929688 15.738281 L 58.929688 50.988281 C 58.929688 51.582031 59.410156 52.066406 60.003906 52.066406 C 60.601562 52.066406 61.082031 51.582031 61.082031 50.988281 L 61.082031 15.738281 C 61.082031 15.144531 60.601562 14.664062 60.003906 14.664062 Z M 60.003906 14.664062 " clip-rule="nonzero"/></clipPath><clipPath id="a426f74fe6"><path d="M 59 42 L 61 42 L 61 46 L 59 46 Z M 59 42 " clip-rule="nonzero"/></clipPath><clipPath id="39eaafe21d"><path d="M 60.003906 14.664062 C 59.410156 14.664062 58.929688 15.144531 58.929688 15.738281 L 58.929688 50.988281 C 58.929688 51.582031 59.410156 52.066406 60.003906 52.066406 C 60.601562 52.066406 61.082031 51.582031 61.082031 50.988281 L 61.082031 15.738281 C 61.082031 15.144531 60.601562 14.664062 60.003906 14.664062 Z M 60.003906 14.664062 " clip-rule="nonzero"/></clipPath><clipPath id="7a6db42ea5"><path d="M 59 48 L 61 48 L 61 52 L 59 52 Z M 59 48 " clip-rule="nonzero"/></clipPath><clipPath id="5992fbde1e"><path d="M 60.003906 14.664062 C 59.410156 14.664062 58.929688 15.144531 58.929688 15.738281 L 58.929688 50.988281 C 58.929688 51.582031 59.410156 52.066406 60.003906 52.066406 C 60.601562 52.066406 61.082031 51.582031 61.082031 50.988281 L 61.082031 15.738281 C 61.082031 15.144531 60.601562 14.664062 60.003906 14.664062 Z M 60.003906 14.664062 " clip-rule="nonzero"/></clipPath><clipPath id="21cd041635"><path d="M 59 33 L 61 33 L 61 36 L 59 36 Z M 59 33 " clip-rule="nonzero"/></clipPath><clipPath id="10ee6cbddd"><path d="M 60.003906 14.664062 C 59.410156 14.664062 58.929688 15.144531 58.929688 15.738281 L 58.929688 50.988281 C 58.929688 51.582031 59.410156 52.066406 60.003906 52.066406 C 60.601562 52.066406 61.082031 51.582031 61.082031 50.988281 L 61.082031 15.738281 C 61.082031 15.144531 60.601562 14.664062 60.003906 14.664062 Z M 60.003906 14.664062 " clip-rule="nonzero"/></clipPath><clipPath id="b584ad1edf"><path d="M 59 37 L 61 37 L 61 40 L 59 40 Z M 59 37 " clip-rule="nonzero"/></clipPath><clipPath id="d737a3fbc0"><path d="M 60.003906 14.664062 C 59.410156 14.664062 58.929688 15.144531 58.929688 15.738281 L 58.929688 50.988281 C 58.929688 51.582031 59.410156 52.066406 60.003906 52.066406 C 60.601562 52.066406 61.082031 51.582031 61.082031 50.988281 L 61.082031 15.738281 C 61.082031 15.144531 60.601562 14.664062 60.003906 14.664062 Z M 60.003906 14.664062 " clip-rule="nonzero"/></clipPath><clipPath id="eb9fdc3cde"><path d="M 59 35 L 61 35 L 61 38 L 59 38 Z M 59 35 " clip-rule="nonzero"/></clipPath><clipPath id="a5fdb3ca6c"><path d="M 60.003906 14.664062 C 59.410156 14.664062 58.929688 15.144531 58.929688 15.738281 L 58.929688 50.988281 C 58.929688 51.582031 59.410156 52.066406 60.003906 52.066406 C 60.601562 52.066406 61.082031 51.582031 61.082031 50.988281 L 61.082031 15.738281 C 61.082031 15.144531 60.601562 14.664062 60.003906 14.664062 Z M 60.003906 14.664062 " clip-rule="nonzero"/></clipPath><clipPath id="8ebab3029f"><path d="M 59 40 L 61 40 L 61 44 L 59 44 Z M 59 40 " clip-rule="nonzero"/></clipPath><clipPath id="3fcf1e971b"><path d="M 60.003906 14.664062 C 59.410156 14.664062 58.929688 15.144531 58.929688 15.738281 L 58.929688 50.988281 C 58.929688 51.582031 59.410156 52.066406 60.003906 52.066406 C 60.601562 52.066406 61.082031 51.582031 61.082031 50.988281 L 61.082031 15.738281 C 61.082031 15.144531 60.601562 14.664062 60.003906 14.664062 Z M 60.003906 14.664062 " clip-rule="nonzero"/></clipPath><clipPath id="261e1c8596"><path d="M 59 39 L 61 39 L 61 42 L 59 42 Z M 59 39 " clip-rule="nonzero"/></clipPath><clipPath id="21adca843f"><path d="M 60.003906 14.664062 C 59.410156 14.664062 58.929688 15.144531 58.929688 15.738281 L 58.929688 50.988281 C 58.929688 51.582031 59.410156 52.066406 60.003906 52.066406 C 60.601562 52.066406 61.082031 51.582031 61.082031 50.988281 L 61.082031 15.738281 C 61.082031 15.144531 60.601562 14.664062 60.003906 14.664062 Z M 60.003906 14.664062 " clip-rule="nonzero"/></clipPath><clipPath id="0d4d45b6c5"><path d="M 3.96875 0.199219 L 75.105469 0.199219 L 75.105469 26.902344 L 3.96875 26.902344 Z M 3.96875 0.199219 " clip-rule="nonzero"/></clipPath><clipPath id="53491c38bc"><path d="M 51.007812 50.394531 L 69.710938 50.394531 L 69.710938 69.09375 L 51.007812 69.09375 Z M 51.007812 50.394531 " clip-rule="nonzero"/></clipPath><clipPath id="4b7224f200"><path d="M 60.535156 50.394531 C 55.273438 50.394531 51.007812 54.660156 51.007812 59.917969 C 51.007812 65.179688 55.273438 69.445312 60.535156 69.445312 C 65.796875 69.445312 70.058594 65.179688 70.058594 59.917969 C 70.058594 54.660156 65.796875 50.394531 60.535156 50.394531 Z M 60.535156 50.394531 " clip-rule="nonzero"/></clipPath></defs><g clip-path="url(#7b031873d5)"><path fill="#ffffff" d="M 0 0.199219 L 93.5 0.199219 L 93.5 149.800781 L 0 149.800781 Z M 0 0.199219 " fill-opacity="1" fill-rule="nonzero"/><path fill="#ffffff" d="M 0 0.199219 L 93.5 0.199219 L 93.5 149.800781 L 0 149.800781 Z M 0 0.199219 " fill-opacity="1" fill-rule="nonzero"/></g><path stroke-linecap="butt" transform="matrix(0.748005, 0, 0, 0.748005, 9.350066, 117.515041)" fill="none" stroke-linejoin="miter" d="M 0.00200052 4.998448 L 100.002338 4.998448 " stroke="#000000" stroke-width="10" stroke-opacity="1" stroke-miterlimit="4"/><path stroke-linecap="butt" transform="matrix(0, -0.748005, 0.748005, 0, 8.597216, 124.990242)" fill="none" stroke-linejoin="miter" d="M -0.00260116 2.998144 L 131.137849 2.998144 " stroke="#000000" stroke-width="6" stroke-opacity="1" stroke-miterlimit="4"/><path stroke-linecap="butt" transform="matrix(0.748005, 0, 0, 0.748005, 9.350066, 26.155223)" fill="none" stroke-linejoin="miter" d="M 0.00200052 2.998929 L 69.159892 2.998929 " stroke="#000000" stroke-width="6" stroke-opacity="1" stroke-miterlimit="4"/><g clip-path="url(#3e442ec77c)"><g clip-path="url(#155410d21c)"><path fill="#000000" d="M 60.382812 51.664062 C 60.492188 51.773438 60.578125 51.898438 60.640625 52.035156 L 61 52.035156 C 60.941406 51.859375 60.851562 51.691406 60.726562 51.542969 C 60.957031 51.265625 61.082031 50.925781 61.082031 50.5625 C 61.082031 50.390625 61.050781 50.226562 61 50.070312 C 60.941406 49.890625 60.851562 49.726562 60.726562 49.578125 C 60.957031 49.300781 61.082031 48.957031 61.082031 48.597656 C 61.082031 48.425781 61.050781 48.261719 61 48.105469 C 60.941406 47.925781 60.851562 47.761719 60.726562 47.613281 C 60.957031 47.335938 61.082031 46.992188 61.082031 46.628906 C 61.082031 46.460938 61.050781 46.296875 61 46.140625 C 60.941406 45.960938 60.851562 45.792969 60.726562 45.648438 C 60.957031 45.371094 61.082031 45.027344 61.082031 44.664062 C 61.082031 44.496094 61.050781 44.328125 61 44.171875 C 60.941406 43.996094 60.851562 43.828125 60.726562 43.683594 C 60.957031 43.40625 61.082031 43.0625 61.082031 42.699219 C 61.082031 42.53125 61.050781 42.363281 61 42.207031 C 60.941406 42.03125 60.851562 41.863281 60.726562 41.714844 C 60.957031 41.4375 61.082031 41.097656 61.082031 40.734375 C 61.082031 40.5625 61.050781 40.398438 61 40.242188 C 60.941406 40.0625 60.851562 39.898438 60.726562 39.75 C 60.957031 39.472656 61.082031 39.128906 61.082031 38.769531 C 61.082031 38.597656 61.050781 38.433594 61 38.277344 C 60.941406 38.097656 60.851562 37.933594 60.726562 37.785156 C 60.957031 37.507812 61.082031 37.164062 61.082031 36.800781 C 61.082031 36.632812 61.050781 36.46875 61 36.3125 C 60.941406 36.132812 60.851562 35.964844 60.726562 35.820312 C 60.957031 35.542969 61.082031 35.199219 61.082031 34.835938 C 61.082031 34.667969 61.050781 34.5 61 34.34375 C 60.941406 34.167969 60.851562 34 60.726562 33.855469 C 60.957031 33.578125 61.082031 33.234375 61.082031 32.871094 C 61.082031 32.703125 61.050781 32.535156 61 32.378906 C 60.941406 32.203125 60.851562 32.035156 60.726562 31.886719 C 60.957031 31.609375 61.082031 31.269531 61.082031 30.90625 C 61.082031 30.734375 61.050781 30.570312 61 30.414062 C 60.941406 30.234375 60.851562 30.070312 60.726562 29.921875 C 60.957031 29.644531 61.082031 29.300781 61.082031 28.941406 C 61.082031 28.769531 61.050781 28.605469 61 28.449219 C 60.941406 28.269531 60.851562 28.105469 60.726562 27.957031 C 60.957031 27.679688 61.082031 27.335938 61.082031 26.972656 C 61.082031 26.804688 61.050781 26.640625 61 26.484375 C 60.941406 26.304688 60.851562 26.136719 60.726562 25.992188 C 60.957031 25.714844 61.082031 25.371094 61.082031 25.007812 C 61.082031 24.839844 61.050781 24.671875 61 24.515625 C 60.941406 24.339844 60.851562 24.171875 60.726562 24.027344 C 60.957031 23.75 61.082031 23.40625 61.082031 23.042969 C 61.082031 22.875 61.050781 22.707031 61 22.550781 C 60.941406 22.375 60.851562 22.207031 60.726562 22.058594 C 60.957031 21.785156 61.082031 21.441406 61.082031 21.078125 C 61.082031 20.90625 61.050781 20.742188 61 20.585938 C 60.941406 20.410156 60.851562 20.242188 60.726562 20.09375 C 60.957031 19.816406 61.082031 19.472656 61.082031 19.113281 C 61.082031 18.941406 61.050781 18.777344 61 18.621094 C 60.941406 18.441406 60.851562 18.277344 60.726562 18.128906 C 60.957031 17.851562 61.082031 17.507812 61.082031 17.144531 C 61.082031 16.976562 61.050781 16.8125 61 16.65625 C 60.941406 16.476562 60.851562 16.3125 60.726562 16.164062 C 60.957031 15.886719 61.082031 15.542969 61.082031 15.179688 C 61.082031 15.011719 61.050781 14.84375 61 14.6875 L 60.640625 14.6875 C 60.707031 14.84375 60.746094 15.007812 60.746094 15.179688 C 60.746094 15.449219 60.65625 15.707031 60.492188 15.917969 L 59.628906 15.0625 C 59.515625 14.953125 59.429688 14.824219 59.371094 14.6875 L 59.011719 14.6875 C 59.070312 14.863281 59.160156 15.03125 59.28125 15.179688 C 59.046875 15.464844 58.929688 15.8125 58.929688 16.164062 C 58.929688 16.328125 58.957031 16.496094 59.011719 16.65625 C 59.070312 16.828125 59.160156 16.996094 59.28125 17.144531 C 59.046875 17.429688 58.929688 17.78125 58.929688 18.128906 C 58.929688 18.296875 58.957031 18.460938 59.011719 18.621094 C 59.070312 18.796875 59.160156 18.960938 59.28125 19.113281 C 59.046875 19.398438 58.929688 19.746094 58.929688 20.09375 C 58.929688 20.261719 58.957031 20.425781 59.011719 20.585938 C 59.070312 20.761719 59.160156 20.929688 59.28125 21.078125 C 59.046875 21.363281 58.929688 21.710938 58.929688 22.058594 C 58.929688 22.226562 58.957031 22.394531 59.011719 22.550781 C 59.070312 22.726562 59.160156 22.894531 59.28125 23.042969 C 59.046875 23.328125 58.929688 23.675781 58.929688 24.027344 C 58.929688 24.191406 58.957031 24.359375 59.011719 24.515625 C 59.070312 24.691406 59.160156 24.859375 59.28125 25.007812 C 59.046875 25.292969 58.929688 25.644531 58.929688 25.992188 C 58.929688 26.15625 58.957031 26.324219 59.011719 26.484375 C 59.070312 26.660156 59.160156 26.824219 59.28125 26.976562 C 59.046875 27.257812 58.929688 27.609375 58.929688 27.957031 C 58.929688 28.125 58.957031 28.289062 59.011719 28.449219 C 59.070312 28.625 59.160156 28.789062 59.28125 28.941406 C 59.046875 29.226562 58.929688 29.574219 58.929688 29.921875 C 58.929688 30.089844 58.957031 30.253906 59.011719 30.414062 C 59.070312 30.589844 59.160156 30.757812 59.28125 30.90625 C 59.046875 31.191406 58.929688 31.539062 58.929688 31.890625 C 58.929688 32.054688 58.957031 32.222656 59.011719 32.378906 C 59.070312 32.554688 59.160156 32.722656 59.28125 32.871094 C 59.046875 33.15625 58.929688 33.503906 58.929688 33.855469 C 58.929688 34.019531 58.957031 34.1875 59.011719 34.347656 C 59.070312 34.519531 59.160156 34.6875 59.28125 34.835938 C 59.046875 35.121094 58.929688 35.472656 58.929688 35.820312 C 58.929688 35.984375 58.957031 36.152344 59.011719 36.3125 C 59.070312 36.488281 59.160156 36.652344 59.28125 36.804688 C 59.046875 37.089844 58.929688 37.4375 58.929688 37.785156 C 58.929688 37.953125 58.957031 38.117188 59.011719 38.277344 C 59.070312 38.453125 59.160156 38.621094 59.28125 38.769531 C 59.046875 39.054688 58.929688 39.402344 58.929688 39.75 C 58.929688 39.917969 58.957031 40.082031 59.011719 40.242188 C 59.070312 40.417969 59.160156 40.585938 59.28125 40.734375 C 59.046875 41.019531 58.929688 41.367188 58.929688 41.71875 C 58.929688 41.882812 58.957031 42.050781 59.011719 42.207031 C 59.070312 42.382812 59.160156 42.550781 59.28125 42.699219 C 59.046875 42.984375 58.929688 43.332031 58.929688 43.683594 C 58.929688 43.847656 58.957031 44.015625 59.011719 44.175781 C 59.070312 44.347656 59.160156 44.515625 59.28125 44.664062 C 59.046875 44.949219 58.929688 45.300781 58.929688 45.648438 C 58.929688 45.816406 58.957031 45.980469 59.011719 46.140625 C 59.070312 46.316406 59.160156 46.480469 59.28125 46.632812 C 59.046875 46.917969 58.929688 47.265625 58.929688 47.613281 C 58.929688 47.78125 58.957031 47.945312 59.011719 48.105469 C 59.070312 48.28125 59.160156 48.449219 59.28125 48.597656 C 59.046875 48.882812 58.929688 49.230469 58.929688 49.578125 C 58.929688 49.746094 58.957031 49.910156 59.011719 50.070312 C 59.070312 50.246094 59.160156 50.414062 59.28125 50.5625 C 59.046875 50.847656 58.929688 51.195312 58.929688 51.546875 C 58.929688 51.710938 58.957031 51.878906 59.011719 52.035156 L 59.371094 52.035156 C 59.195312 51.636719 59.242188 51.164062 59.515625 50.804688 L 59.777344 51.066406 Z M 60.382812 51.664062 " fill-opacity="1" fill-rule="nonzero"/></g></g><g clip-path="url(#149d08376a)"><g clip-path="url(#60d3ac56ac)"><path fill="#000000" d="M 60.746094 32.871094 C 60.746094 32.699219 60.707031 32.53125 60.640625 32.378906 C 60.578125 32.242188 60.492188 32.117188 60.382812 32.007812 L 59.777344 31.40625 L 59.515625 31.148438 C 59.242188 31.507812 59.195312 31.980469 59.371094 32.378906 C 59.429688 32.515625 59.515625 32.640625 59.628906 32.753906 L 60.492188 33.609375 C 60.65625 33.398438 60.746094 33.140625 60.746094 32.871094 Z M 60.746094 32.871094 " fill-opacity="1" fill-rule="nonzero"/></g></g><g clip-path="url(#71d267e8d4)"><g clip-path="url(#dab5fcf95f)"><path fill="#000000" d="M 60.746094 26.972656 C 60.746094 26.800781 60.707031 26.636719 60.640625 26.484375 C 60.578125 26.34375 60.492188 26.21875 60.382812 26.109375 L 59.777344 25.511719 L 59.515625 25.253906 C 59.242188 25.609375 59.195312 26.082031 59.371094 26.484375 C 59.429688 26.617188 59.515625 26.746094 59.628906 26.855469 L 60.492188 27.714844 C 60.65625 27.5 60.746094 27.246094 60.746094 26.972656 Z M 60.746094 26.972656 " fill-opacity="1" fill-rule="nonzero"/></g></g><g clip-path="url(#d392224bb2)"><g clip-path="url(#7541b18bf7)"><path fill="#000000" d="M 60.746094 30.90625 C 60.746094 30.734375 60.707031 30.566406 60.640625 30.414062 C 60.578125 30.277344 60.492188 30.148438 60.382812 30.042969 L 59.777344 29.441406 L 59.515625 29.183594 C 59.242188 29.542969 59.195312 30.015625 59.371094 30.414062 C 59.429688 30.550781 59.515625 30.675781 59.628906 30.789062 L 60.492188 31.644531 C 60.65625 31.433594 60.746094 31.175781 60.746094 30.90625 Z M 60.746094 30.90625 " fill-opacity="1" fill-rule="nonzero"/></g></g><g clip-path="url(#90c87866d8)"><g clip-path="url(#3f2066d9b1)"><path fill="#000000" d="M 60.746094 28.941406 C 60.746094 28.769531 60.707031 28.601562 60.640625 28.449219 C 60.578125 28.3125 60.492188 28.183594 60.382812 28.074219 L 59.777344 27.476562 L 59.515625 27.21875 C 59.242188 27.574219 59.195312 28.050781 59.371094 28.449219 C 59.429688 28.585938 59.515625 28.710938 59.628906 28.820312 L 60.492188 29.679688 C 60.65625 29.46875 60.746094 29.210938 60.746094 28.941406 Z M 60.746094 28.941406 " fill-opacity="1" fill-rule="nonzero"/></g></g><g clip-path="url(#6fb4764629)"><g clip-path="url(#8446e24bb9)"><path fill="#000000" d="M 60.746094 23.042969 C 60.746094 22.871094 60.707031 22.703125 60.640625 22.550781 C 60.578125 22.414062 60.492188 22.289062 60.382812 22.179688 L 59.777344 21.578125 L 59.515625 21.320312 C 59.242188 21.679688 59.195312 22.152344 59.371094 22.550781 C 59.429688 22.6875 59.515625 22.8125 59.628906 22.925781 L 60.492188 23.78125 C 60.65625 23.570312 60.746094 23.3125 60.746094 23.042969 Z M 60.746094 23.042969 " fill-opacity="1" fill-rule="nonzero"/></g></g><g clip-path="url(#98524a644a)"><g clip-path="url(#994961dbca)"><path fill="#000000" d="M 59.777344 51.0625 L 59.515625 50.804688 C 59.242188 51.164062 59.195312 51.636719 59.371094 52.035156 L 60.640625 52.035156 C 60.578125 51.898438 60.492188 51.773438 60.382812 51.664062 Z M 59.777344 51.0625 " fill-opacity="1" fill-rule="nonzero"/></g></g><g clip-path="url(#f5c0561da6)"><g clip-path="url(#8f64988df1)"><path fill="#000000" d="M 60.492188 15.917969 C 60.65625 15.707031 60.746094 15.449219 60.746094 15.179688 C 60.746094 15.007812 60.707031 14.84375 60.640625 14.6875 L 59.371094 14.6875 C 59.429688 14.824219 59.515625 14.953125 59.628906 15.0625 Z M 60.492188 15.917969 " fill-opacity="1" fill-rule="nonzero"/></g></g><g clip-path="url(#c2b7de3d18)"><g clip-path="url(#88b3b6bbb6)"><path fill="#000000" d="M 60.746094 21.078125 C 60.746094 20.90625 60.707031 20.738281 60.640625 20.585938 C 60.578125 20.449219 60.492188 20.320312 60.382812 20.214844 L 59.777344 19.613281 L 59.515625 19.355469 C 59.242188 19.714844 59.195312 20.1875 59.371094 20.585938 C 59.429688 20.722656 59.515625 20.847656 59.628906 20.960938 L 60.492188 21.816406 C 60.65625 21.605469 60.746094 21.347656 60.746094 21.078125 Z M 60.746094 21.078125 " fill-opacity="1" fill-rule="nonzero"/></g></g><g clip-path="url(#b85b71b8e3)"><g clip-path="url(#8b53f2815b)"><path fill="#000000" d="M 60.746094 19.113281 C 60.746094 18.941406 60.707031 18.773438 60.640625 18.621094 C 60.578125 18.484375 60.492188 18.355469 60.382812 18.246094 L 59.777344 17.648438 L 59.515625 17.390625 C 59.242188 17.746094 59.195312 18.222656 59.371094 18.621094 C 59.429688 18.757812 59.515625 18.882812 59.628906 18.992188 L 60.492188 19.851562 C 60.65625 19.640625 60.746094 19.382812 60.746094 19.113281 Z M 60.746094 19.113281 " fill-opacity="1" fill-rule="nonzero"/></g></g><g clip-path="url(#2291afb268)"><g clip-path="url(#fea994356a)"><path fill="#000000" d="M 60.746094 17.144531 C 60.746094 16.972656 60.707031 16.808594 60.640625 16.65625 C 60.578125 16.519531 60.492188 16.390625 60.382812 16.28125 L 59.777344 15.683594 L 59.515625 15.425781 C 59.242188 15.78125 59.195312 16.253906 59.371094 16.65625 C 59.429688 16.789062 59.515625 16.917969 59.628906 17.027344 L 60.492188 17.886719 C 60.65625 17.671875 60.746094 17.417969 60.746094 17.144531 Z M 60.746094 17.144531 " fill-opacity="1" fill-rule="nonzero"/></g></g><g clip-path="url(#4e23ead6fe)"><g clip-path="url(#72d98eead7)"><path fill="#000000" d="M 60.746094 25.007812 C 60.746094 24.835938 60.707031 24.671875 60.640625 24.515625 C 60.578125 24.378906 60.492188 24.253906 60.382812 24.144531 L 59.777344 23.546875 L 59.515625 23.285156 C 59.242188 23.644531 59.195312 24.117188 59.371094 24.515625 C 59.429688 24.652344 59.515625 24.78125 59.628906 24.890625 L 60.492188 25.746094 C 60.65625 25.535156 60.746094 25.277344 60.746094 25.007812 Z M 60.746094 25.007812 " fill-opacity="1" fill-rule="nonzero"/></g></g><g clip-path="url(#8c29bd0c0f)"><g clip-path="url(#d08228cd06)"><path fill="#000000" d="M 60.746094 48.597656 C 60.746094 48.421875 60.707031 48.257812 60.640625 48.105469 C 60.578125 47.96875 60.492188 47.839844 60.382812 47.730469 L 59.777344 47.132812 L 59.515625 46.875 C 59.242188 47.230469 59.195312 47.707031 59.371094 48.105469 C 59.429688 48.238281 59.515625 48.367188 59.628906 48.476562 L 60.492188 49.335938 C 60.65625 49.125 60.746094 48.867188 60.746094 48.597656 Z M 60.746094 48.597656 " fill-opacity="1" fill-rule="nonzero"/></g></g><g clip-path="url(#7a804d5e47)"><g clip-path="url(#d0205bed08)"><path fill="#000000" d="M 60.746094 46.628906 C 60.746094 46.457031 60.707031 46.292969 60.640625 46.140625 C 60.578125 46 60.492188 45.875 60.382812 45.765625 L 59.777344 45.167969 L 59.515625 44.910156 C 59.242188 45.265625 59.195312 45.738281 59.371094 46.140625 C 59.429688 46.273438 59.515625 46.402344 59.628906 46.511719 L 60.492188 47.371094 C 60.65625 47.15625 60.746094 46.902344 60.746094 46.628906 Z M 60.746094 46.628906 " fill-opacity="1" fill-rule="nonzero"/></g></g><g clip-path="url(#a426f74fe6)"><g clip-path="url(#39eaafe21d)"><path fill="#000000" d="M 60.746094 44.664062 C 60.746094 44.492188 60.707031 44.328125 60.640625 44.171875 C 60.578125 44.035156 60.492188 43.910156 60.382812 43.800781 L 59.777344 43.203125 L 59.515625 42.941406 C 59.242188 43.300781 59.195312 43.773438 59.371094 44.171875 C 59.429688 44.308594 59.515625 44.4375 59.628906 44.546875 L 60.492188 45.402344 C 60.65625 45.191406 60.746094 44.933594 60.746094 44.664062 Z M 60.746094 44.664062 " fill-opacity="1" fill-rule="nonzero"/></g></g><g clip-path="url(#7a6db42ea5)"><g clip-path="url(#5992fbde1e)"><path fill="#000000" d="M 60.640625 50.070312 C 60.578125 49.933594 60.492188 49.804688 60.382812 49.695312 L 59.777344 49.097656 L 59.515625 48.839844 C 59.242188 49.195312 59.195312 49.671875 59.371094 50.070312 C 59.429688 50.207031 59.515625 50.332031 59.628906 50.445312 L 60.492188 51.300781 C 60.65625 51.089844 60.746094 50.832031 60.746094 50.5625 C 60.746094 50.390625 60.707031 50.222656 60.640625 50.070312 Z M 60.640625 50.070312 " fill-opacity="1" fill-rule="nonzero"/></g></g><g clip-path="url(#21cd041635)"><g clip-path="url(#10ee6cbddd)"><path fill="#000000" d="M 60.746094 34.835938 C 60.746094 34.664062 60.707031 34.5 60.640625 34.34375 C 60.578125 34.207031 60.492188 34.082031 60.382812 33.972656 L 59.777344 33.375 L 59.515625 33.113281 C 59.242188 33.472656 59.195312 33.945312 59.371094 34.34375 C 59.429688 34.480469 59.515625 34.609375 59.628906 34.71875 L 60.492188 35.574219 C 60.65625 35.363281 60.746094 35.105469 60.746094 34.835938 Z M 60.746094 34.835938 " fill-opacity="1" fill-rule="nonzero"/></g></g><g clip-path="url(#b584ad1edf)"><g clip-path="url(#d737a3fbc0)"><path fill="#000000" d="M 60.746094 38.769531 C 60.746094 38.597656 60.707031 38.429688 60.640625 38.277344 C 60.578125 38.140625 60.492188 38.011719 60.382812 37.902344 L 59.777344 37.304688 L 59.515625 37.046875 C 59.242188 37.402344 59.195312 37.878906 59.371094 38.277344 C 59.429688 38.410156 59.515625 38.539062 59.628906 38.648438 L 60.492188 39.507812 C 60.65625 39.296875 60.746094 39.039062 60.746094 38.769531 Z M 60.746094 38.769531 " fill-opacity="1" fill-rule="nonzero"/></g></g><g clip-path="url(#eb9fdc3cde)"><g clip-path="url(#a5fdb3ca6c)"><path fill="#000000" d="M 60.746094 36.800781 C 60.746094 36.628906 60.707031 36.464844 60.640625 36.3125 C 60.578125 36.171875 60.492188 36.046875 60.382812 35.9375 L 59.777344 35.339844 L 59.515625 35.082031 C 59.242188 35.4375 59.195312 35.910156 59.371094 36.3125 C 59.429688 36.445312 59.515625 36.574219 59.628906 36.683594 L 60.492188 37.542969 C 60.65625 37.328125 60.746094 37.074219 60.746094 36.800781 Z M 60.746094 36.800781 " fill-opacity="1" fill-rule="nonzero"/></g></g><g clip-path="url(#8ebab3029f)"><g clip-path="url(#3fcf1e971b)"><path fill="#000000" d="M 60.746094 42.699219 C 60.746094 42.527344 60.707031 42.359375 60.640625 42.207031 C 60.578125 42.070312 60.492188 41.945312 60.382812 41.835938 L 59.777344 41.234375 L 59.515625 40.976562 C 59.242188 41.335938 59.195312 41.808594 59.371094 42.207031 C 59.429688 42.34375 59.515625 42.46875 59.628906 42.582031 L 60.492188 43.4375 C 60.65625 43.226562 60.746094 42.96875 60.746094 42.699219 Z M 60.746094 42.699219 " fill-opacity="1" fill-rule="nonzero"/></g></g><g clip-path="url(#261e1c8596)"><g clip-path="url(#21adca843f)"><path fill="#000000" d="M 60.746094 40.734375 C 60.746094 40.5625 60.707031 40.394531 60.640625 40.242188 C 60.578125 40.105469 60.492188 39.976562 60.382812 39.867188 L 59.777344 39.269531 L 59.515625 39.011719 C 59.242188 39.371094 59.195312 39.84375 59.371094 40.242188 C 59.429688 40.378906 59.515625 40.503906 59.628906 40.617188 L 60.492188 41.472656 C 60.65625 41.261719 60.746094 41.003906 60.746094 40.734375 Z M 60.746094 40.734375 " fill-opacity="1" fill-rule="nonzero"/></g></g><g clip-path="url(#0d4d45b6c5)"><path fill="#ffffff" d="M 3.96875 0.199219 L 75.109375 0.199219 L 75.109375 26.902344 L 3.96875 26.902344 Z M 3.96875 0.199219 " fill-opacity="1" fill-rule="nonzero"/></g><path stroke-linecap="round" transform="matrix(0.584566, -0.466685, 0.466685, 0.584566, 10.37904, 43.792341)" fill="none" stroke-linejoin="miter" d="M 0.999425 0.999428 L 33.241535 0.999463 " stroke="#000000" stroke-width="2" stroke-opacity="1" stroke-miterlimit="4"/><g clip-path="url(#53491c38bc)"><g clip-path="url(#4b7224f200)"><path stroke-linecap="butt" transform="matrix(0.748005, 0, 0, 0.748005, 51.009114, 50.39448)" fill="none" stroke-linejoin="miter" d="M 12.735261 0.0000688227 C 5.700928 0.0000688227 -0.00173938 5.702736 -0.00173938 12.731847 C -0.00173938 19.766181 5.700928 25.468848 12.735261 25.468848 C 19.769595 25.468848 25.467039 19.766181 25.467039 12.731847 C 25.467039 5.702736 19.769595 0.0000688227 12.735261 0.0000688227 Z M 12.735261 0.0000688227 " stroke="#000000" stroke-width="46" stroke-opacity="1" stroke-miterlimit="4"/></g></g><path stroke-linecap="butt" transform="matrix(0, 0.748005, -0.748005, 0, 62.030611, 68.712224)" fill="none" stroke-linejoin="miter" d="M -0.00172056 1.999257 L 20.511169 1.999257 " stroke="#000000" stroke-width="4" stroke-opacity="1" stroke-miterlimit="4"/></svg>